<svg width="75" height="13" viewBox="0 0 75 13" fill="none" xmlns="http://www.w3.org/2000/svg">
<path fill-rule="evenodd" clip-rule="evenodd" d="M72.2166 12.0838C73.2957 12.0838 74.2052 11.3385 74.2052 10.3806V2.0178C74.2052 1.0785 73.2953 0.313522 72.2166 0.313522H1.96607C0.855756 0.313522 0 1.0785 0 2.0178V10.3809C0 11.3389 0.855756 12.0841 1.96607 12.0841H72.2166V12.0838Z" fill="#34603C"/>
<path fill-rule="evenodd" clip-rule="evenodd" d="M23.8129 6.20275C23.8129 5.24806 24.8257 4.48022 26.0633 4.48022C27.3 4.48022 28.3142 5.24806 28.3142 6.20275C28.3142 7.15781 27.3 7.91777 26.0633 7.91777C24.8257 7.91777 23.8129 7.15781 23.8129 6.20275Z" fill="#E7B73C"/>
<path fill-rule="evenodd" clip-rule="evenodd" d="M60.6053 6.94737L60.6238 6.93054H61.4891L61.4417 7.00178C61.2677 7.26893 61.004 7.49278 60.6798 7.64862C60.3174 7.82904 59.9197 7.90886 59.4914 7.90886C58.2809 7.90886 57.3015 7.13995 57.3015 6.2028C57.3015 5.25705 58.2809 4.4885 59.5018 4.4885C59.8941 4.48981 60.2789 4.57334 60.6174 4.73062C60.9558 4.88791 61.2359 5.11336 61.4291 5.38413L61.481 5.45823H60.613L60.5963 5.44284C60.3214 5.20085 59.9288 5.06626 59.4783 5.06626C59.0973 5.06569 58.7315 5.18504 58.4613 5.39812C58.1912 5.6112 58.0386 5.9006 58.0372 6.2028C58.0372 6.82709 58.6691 7.34041 59.5131 7.34041C59.9392 7.34006 60.3648 7.17933 60.6053 6.94737ZM22.0386 6.94737L22.0557 6.93054H22.8957L22.8496 7.00178C22.6822 7.2667 22.4267 7.49035 22.1108 7.64862C21.7583 7.82904 21.3611 7.90886 20.9454 7.90886C19.7701 7.90886 18.8304 7.13995 18.8304 6.2028C18.8304 5.25741 19.7809 4.4885 20.9567 4.4885C21.7362 4.4885 22.4628 4.83644 22.8384 5.38413L22.8889 5.45823H22.0471L22.0295 5.4432C21.8929 5.32277 21.7254 5.22683 21.5383 5.16177C21.3512 5.09672 21.1488 5.06403 20.9445 5.0659C20.1677 5.0659 19.5331 5.57887 19.5331 6.20244C19.5331 6.82602 20.1574 7.34006 20.9761 7.34006C21.3913 7.34006 21.8043 7.17933 22.0386 6.94737ZM14.0086 7.84765V4.55759H14.7114L16.5854 6.76839V4.55759H17.2854V7.84765H16.6468L14.706 5.54199V7.84765H14.0086ZM53.3567 6.89331L53.3549 6.84213H54.0901L54.0983 6.88472C54.1502 7.1915 54.4305 7.36511 54.7279 7.36511C55.0583 7.36511 55.3345 7.15893 55.3345 6.87363C55.3345 6.53786 54.9062 6.45051 54.6444 6.40183C54.6094 6.3959 54.5747 6.38861 54.5406 6.37999C54.0707 6.25685 53.929 6.1645 53.8405 6.0997C53.6261 5.94005 53.5047 5.72742 53.5047 5.4525C53.5047 4.89873 54.0441 4.48814 54.7735 4.48814C55.4126 4.48814 55.937 4.8368 55.9962 5.39595L56.0025 5.44892H55.2533L55.2451 5.40704C55.2036 5.17794 54.9815 5.03941 54.7514 5.03941C54.4535 5.03941 54.2346 5.21123 54.2346 5.4346C54.2346 5.71811 54.6038 5.79937 54.8588 5.84985C54.8728 5.85271 54.8868 5.85557 54.9012 5.85772C55.4857 5.97907 55.6744 6.10221 55.8134 6.2411C55.965 6.39181 56.0752 6.6184 56.0752 6.86575C56.0752 7.47107 55.4907 7.90815 54.7053 7.90815C54.0369 7.9085 53.3937 7.57166 53.3567 6.89331ZM49.8782 7.84765V4.55759H52.1922V5.10957H50.6653V5.9354H52.1922V6.49562H50.6653V7.29603H52.1922V7.84765H49.8782ZM33.0289 4.55759H31.4559L31.4451 7.84765H32.9968C34.0593 7.84765 34.9033 7.22479 34.9033 6.1849C34.9029 5.19763 34.0589 4.55759 33.0289 4.55759ZM33.8797 6.97171C33.6657 7.17038 33.3475 7.31357 32.8244 7.31357H32.1609V5.09203H32.7712C33.3385 5.09203 33.6328 5.22054 33.8598 5.41671C34.0715 5.60142 34.2087 5.84841 34.2087 6.21139C34.2087 6.53965 34.085 6.78091 33.8797 6.97171ZM47.4553 6.65849C47.9207 6.59334 48.4745 6.30947 48.4745 5.62755C48.4745 4.92916 47.7726 4.55795 47.1899 4.55795H45.7267V7.84801H46.4204V6.4838L47.6503 7.84801H48.5345L47.4553 6.65849ZM46.4204 6.18025V5.07485H47.0735C47.4797 5.07485 47.769 5.31648 47.769 5.64473C47.769 5.92752 47.5027 6.18061 47.0419 6.18061H46.4204V6.18025ZM67.33 4.55759H66.6611L64.8688 7.84765H65.6789L66.1795 6.91515H67.8084L68.3004 7.84765H69.1218L67.33 4.55759ZM66.4458 6.39861L66.9684 5.39917L67.5132 6.39861H66.4458ZM7.02674 6.07751C7.26731 5.90676 7.40272 5.67659 7.40272 5.40919C7.40272 4.91448 6.91571 4.55759 6.13714 4.55759H4.80115V7.84765H6.26893C7.03758 7.84765 7.62929 7.4274 7.62929 6.8568C7.62856 6.69559 7.57197 6.53763 7.4657 6.40019C7.35944 6.26276 7.20759 6.15113 7.02674 6.07751ZM5.59326 5.09239H5.97014C6.26713 5.09239 6.38854 5.14286 6.4946 5.23379C6.59029 5.31469 6.63227 5.39702 6.63227 5.48794C6.63227 5.6995 6.40614 5.88349 6.01843 5.88349H5.59326V5.09239ZM6.2098 7.32287H5.59326V6.40827H6.17234C6.57314 6.40827 6.84756 6.61876 6.84756 6.85716C6.84756 7.11454 6.56998 7.32287 6.2098 7.32287ZM10.9548 4.55759H10.336L8.67236 7.84765H9.43513L9.90093 6.91515H11.4017L11.867 7.84765H12.6185L10.9548 4.55759ZM10.1559 6.39861L10.6407 5.39917L11.1457 6.39861H10.1559ZM43.7741 6.05603C44.0043 5.88492 44.132 5.65475 44.132 5.38735C44.132 4.893 43.6694 4.53611 42.9306 4.53611H41.6754V7.82581H43.056C43.785 7.82581 44.3473 7.40556 44.3473 6.83497C44.3473 6.50206 44.1208 6.20817 43.7741 6.05603ZM42.4413 5.09239H42.7992C43.0908 5.09239 43.195 5.14286 43.2975 5.23379C43.3873 5.31469 43.4279 5.39702 43.4279 5.48794C43.4279 5.6995 43.2136 5.88349 42.8443 5.88349H42.4413V5.09239ZM43.024 7.32287H42.4413V6.40827H42.9915C43.3715 6.40827 43.6315 6.61876 43.6315 6.85716C43.6315 7.11454 43.3679 7.32287 43.024 7.32287ZM36.3476 7.84765V4.55759H37.0978V7.84765H36.3476ZM62.8779 7.84765V4.55759H63.6185V7.84765H62.8779Z" fill="white"/>
</svg>
