<svg width="107" height="24" viewBox="0 0 107 24" fill="none" xmlns="http://www.w3.org/2000/svg">
<path d="M7.1508 10.0119C7.1508 10.0119 9.09468 8.49954 11.2554 10.6602C11.2554 10.6602 11.0396 12.1726 9.09468 12.6041C9.09468 12.6041 9.74299 13.685 11.0396 12.8199C11.0396 12.8199 10.8951 13.9719 9.78279 14.3972C9.51723 14.4933 9.23252 14.5244 8.95246 14.488C8.6724 14.4515 8.40513 14.3486 8.17302 14.1877C7.83912 13.9582 7.53145 13.6926 7.25554 13.3959C7.09899 13.2249 6.95446 13.0433 6.82298 12.8523C6.6376 12.5968 6.2438 12.1715 5.63843 12.1715C5.63843 12.1715 6.71825 10.4434 8.23062 11.0917C8.23062 11.0917 8.23062 10.4434 7.1508 10.0119Z" fill="#FAD121"/>
<path d="M17.4161 9.29944H18.4959V11.4601H17.4161V9.29944ZM20.6566 11.4591V12.5389H18.4959V11.4591H20.6566ZM17.4161 11.4591V12.5389H15.2554V11.4591H17.4161ZM18.4969 14.7006H17.4171V12.5399H18.4969V14.7006Z" fill="white"/>
<path d="M24.6565 11.7739L28.249 8.83908V5H32.8216L34.1278 6.35523C34.1278 6.35523 43.5564 3.6798 50.1302 7.59332C50.1302 7.59332 52.0112 8.62233 52.5289 10.8008C53.3649 14.3213 50.0036 17.6338 45.0193 18.5588C42.1377 19.0941 38.3616 19.1587 34.1278 17.6448L32.4954 19H28.249V15.3875L24.6565 11.7739Z" fill="#FAD219"/>
<path d="M57.5206 12.8641C57.9978 12.8641 58.3846 12.4773 58.3846 12.0001C58.3846 11.5228 57.9978 11.136 57.5206 11.136C57.0433 11.136 56.6565 11.5228 56.6565 12.0001C56.6565 12.4773 57.0433 12.8641 57.5206 12.8641Z" fill="white"/>
<path d="M63.2488 12.8641C63.726 12.8641 64.1129 12.4773 64.1129 12.0001C64.1129 11.5228 63.726 11.136 63.2488 11.136C62.7716 11.136 62.3848 11.5228 62.3848 12.0001C62.3848 12.4773 62.7716 12.8641 63.2488 12.8641Z" fill="white"/>
<path d="M94.5009 9.02629C94.3684 8.87583 94.1816 8.78406 93.9816 8.77111C93.7815 8.75815 93.5845 8.82506 93.4337 8.95717L90.7975 11.2477V9.50807C90.7975 9.30752 90.7178 9.11518 90.576 8.97337C90.4342 8.83156 90.2418 8.75189 90.0413 8.75189C89.8407 8.75189 89.6484 8.83156 89.5066 8.97337C89.3648 9.11518 89.2851 9.30752 89.2851 9.50807V14.6935C89.2851 14.7928 89.3047 14.891 89.3427 14.9827C89.3807 15.0744 89.4364 15.1577 89.5067 15.2278C89.5769 15.298 89.6603 15.3536 89.752 15.3915C89.8437 15.4294 89.942 15.4488 90.0413 15.4486C90.2417 15.4486 90.4338 15.3691 90.5756 15.2275C90.7174 15.0859 90.7972 14.8939 90.7975 14.6935V13.2618L91.3987 12.7381L93.573 15.2067C93.6385 15.2813 93.7181 15.3423 93.8072 15.3862C93.8963 15.43 93.9932 15.4559 94.0923 15.4623C94.1914 15.4687 94.2908 15.4556 94.3848 15.4236C94.4788 15.3916 94.5656 15.3414 94.6402 15.2758C94.7154 15.2102 94.777 15.1304 94.8212 15.0409C94.8654 14.9515 94.8915 14.8541 94.8979 14.7545C94.9044 14.6549 94.891 14.555 94.8586 14.4606C94.8263 14.3662 94.7755 14.2791 94.7093 14.2044L92.535 11.7337L94.4318 10.0935C94.5064 10.028 94.5674 9.94842 94.6113 9.85931C94.6551 9.77021 94.681 9.67334 94.6874 9.57424C94.6938 9.47513 94.6807 9.37573 94.6487 9.28171C94.6167 9.1877 94.5665 9.10091 94.5009 9.02629ZM106.244 8.75189H102.355C102.256 8.75189 102.157 8.77145 102.066 8.80945C101.974 8.84745 101.891 8.90315 101.82 8.97337C101.75 9.04359 101.694 9.12695 101.656 9.21869C101.618 9.31044 101.599 9.40877 101.599 9.50807C101.599 9.70863 101.678 9.90097 101.82 10.0428C101.962 10.1846 102.154 10.2643 102.355 10.2643H103.544V14.6935C103.544 14.7928 103.563 14.891 103.601 14.9827C103.639 15.0744 103.695 15.1577 103.765 15.2278C103.836 15.298 103.919 15.3536 104.011 15.3915C104.102 15.4294 104.201 15.4488 104.3 15.4486C104.5 15.4486 104.692 15.3691 104.834 15.2275C104.976 15.0859 105.056 14.8939 105.056 14.6935V10.2643H106.244C106.444 10.2643 106.637 10.1846 106.779 10.0428C106.92 9.90097 107 9.70863 107 9.50807C107 9.30752 106.92 9.11518 106.779 8.97337C106.637 8.83156 106.444 8.75189 106.244 8.75189ZM100.95 14.6935C100.95 14.594 100.931 14.4955 100.893 14.4036C100.855 14.3118 100.799 14.2283 100.728 14.1581C100.658 14.0878 100.574 14.0322 100.482 13.9943C100.39 13.9564 100.292 13.937 100.192 13.9373H97.2785V12.8565H99.7628C99.9634 12.8565 100.156 12.7768 100.298 12.635C100.439 12.4932 100.519 12.3008 100.519 12.1003C100.519 11.8997 100.439 11.7074 100.298 11.5656C100.156 11.4237 99.9634 11.3441 99.7628 11.3441H97.2785V10.2643H100.192C100.393 10.2643 100.585 10.1846 100.727 10.0428C100.869 9.90097 100.948 9.70863 100.948 9.50807C100.948 9.30752 100.869 9.11518 100.727 8.97337C100.585 8.83156 100.393 8.75189 100.192 8.75189H96.6312C96.5183 8.75175 96.4064 8.7739 96.302 8.81706C96.1976 8.86022 96.1028 8.92356 96.0229 9.00343C95.943 9.08331 95.8797 9.17815 95.8365 9.28254C95.7934 9.38693 95.7712 9.4988 95.7713 9.61176V14.5898C95.7713 14.7027 95.7936 14.8145 95.8368 14.9187C95.8801 15.023 95.9434 15.1177 96.0233 15.1975C96.1031 15.2772 96.1979 15.3405 96.3022 15.3836C96.4066 15.4267 96.5184 15.4488 96.6312 15.4486H100.192C100.292 15.4491 100.39 15.4298 100.482 15.3921C100.574 15.3543 100.658 15.2987 100.728 15.2286C100.799 15.1584 100.855 15.075 100.893 14.9832C100.931 14.8914 100.95 14.7929 100.95 14.6935ZM78.0512 8.53613C77.3676 8.53613 76.6994 8.73884 76.131 9.11862C75.5627 9.4984 75.1197 10.0382 74.8581 10.6697C74.5965 11.3013 74.528 11.9962 74.6614 12.6667C74.7947 13.3371 75.1239 13.953 75.6073 14.4363C76.0907 14.9197 76.7065 15.2489 77.3769 15.3822C78.0474 15.5156 78.7423 15.4471 79.3739 15.1856C80.0054 14.924 80.5452 14.481 80.925 13.9126C81.3048 13.3442 81.5075 12.676 81.5075 11.9924C81.5075 11.0757 81.1433 10.1966 80.4952 9.54845C79.847 8.90027 78.9679 8.53613 78.0512 8.53613ZM78.0512 13.9373C77.6665 13.9375 77.2904 13.8236 76.9704 13.61C76.6504 13.3965 76.401 13.0928 76.2536 12.7374C76.1062 12.382 76.0676 11.9909 76.1425 11.6136C76.2174 11.2362 76.4026 10.8896 76.6745 10.6175C76.9465 10.3454 77.2931 10.16 77.6704 10.0849C78.0477 10.0098 78.4388 10.0482 78.7942 10.1954C79.1497 10.3426 79.4535 10.5919 79.6673 10.9117C79.881 11.2316 79.9951 11.6077 79.9951 11.9924C79.9951 12.508 79.7903 13.0026 79.4258 13.3673C79.0613 13.732 78.5669 13.937 78.0512 13.9373ZM86.9736 13.5624C86.6226 13.8207 86.1942 13.9521 85.7587 13.9352C85.267 13.9128 84.8016 13.7066 84.4547 13.3575C84.1077 13.0084 83.9044 12.5418 83.885 12.05C83.8741 11.6774 83.9706 11.3096 84.163 10.9903C84.3554 10.6711 84.6356 10.4139 84.9701 10.2495C85.3046 10.0851 85.6794 10.0204 86.0497 10.0632C86.42 10.1059 86.7701 10.2542 87.0584 10.4905C87.2027 10.6033 87.3835 10.6589 87.5661 10.6465C87.7488 10.6341 87.9205 10.5547 88.0482 10.4235C88.1229 10.3494 88.1813 10.2606 88.2196 10.1626C88.2579 10.0646 88.2752 9.95968 88.2705 9.85459C88.2657 9.74951 88.239 9.64658 88.1921 9.55244C88.1451 9.4583 88.079 9.37504 87.9979 9.30803C87.3446 8.77632 86.5185 8.50345 85.677 8.54137C85.2231 8.55127 84.7756 8.65048 84.3601 8.83332C83.9445 9.01616 83.5691 9.27906 83.2551 9.60701C82.9412 9.93495 82.6949 10.3215 82.5304 10.7446C82.3658 11.1678 82.2862 11.6192 82.2961 12.073C82.306 12.5269 82.4052 12.9744 82.5881 13.3899C82.7709 13.8055 83.0338 14.181 83.3618 14.4949C83.6897 14.8088 84.0763 15.0551 84.4994 15.2196C84.9225 15.3842 85.3739 15.4638 85.8278 15.4539C86.5643 15.4551 87.2816 15.2189 87.8733 14.7804C87.9692 14.7102 88.0472 14.6184 88.1009 14.5124C88.1547 14.4064 88.1827 14.2892 88.1827 14.1704C88.1827 14.0515 88.1547 13.9343 88.1009 13.8283C88.0472 13.7223 87.9692 13.6305 87.8733 13.5603C87.7428 13.4644 87.585 13.4128 87.4231 13.4132C87.2612 13.4136 87.1036 13.4659 86.9736 13.5624ZM72.4374 13.0722C72.5802 13.0313 72.7141 12.9642 72.8323 12.8743C73.5654 12.3202 73.7414 11.7745 73.733 11.0016C73.722 10.3989 73.474 9.82487 73.0427 9.40378C72.6114 8.98269 72.0316 8.74848 71.4288 8.75189H69.0922C68.8325 8.75189 68.5834 8.85506 68.3997 9.03871C68.2161 9.22236 68.1129 9.47144 68.1129 9.73116V14.549C68.1092 14.7684 68.1867 14.9814 68.3305 15.1471C68.4744 15.3128 68.6744 15.4194 68.8922 15.4466C69.0122 15.4582 69.1335 15.4447 69.248 15.4067C69.3625 15.3688 69.4679 15.3073 69.5572 15.2262C69.6466 15.1451 69.718 15.0463 69.7669 14.9359C69.8158 14.8256 69.841 14.7063 69.841 14.5856V13.289H70.7062L72.2133 15.1198C72.2765 15.1983 72.3548 15.2635 72.4434 15.3116C72.5321 15.3597 72.6294 15.3897 72.7298 15.3998C72.8301 15.41 72.9315 15.4001 73.028 15.3707C73.1245 15.3414 73.2142 15.2931 73.2919 15.2288C73.3696 15.1645 73.4337 15.0854 73.4806 14.9961C73.5275 14.9068 73.5561 14.8091 73.5649 14.7086C73.5737 14.6081 73.5624 14.5069 73.5318 14.4108C73.5011 14.3147 73.4517 14.2257 73.3863 14.1489L72.4374 13.0722ZM71.4644 11.7766H69.841V10.2643H71.4613C71.6619 10.2643 71.8542 10.3439 71.996 10.4857C72.1378 10.6276 72.2175 10.8199 72.2175 11.0204C72.2175 11.221 72.1378 11.4133 71.996 11.5552C71.8542 11.697 71.6619 11.7766 71.4613 11.7766H71.4644Z" fill="black"/>
</svg>
